<svg xmlns="http://www.w3.org/2000/svg" viewBox="0 0 200 200">
  <path fill="#f57f17" stroke="#f57f17" stroke-width="1" stroke-linejoin="round" d="M132 21 137 22 142 27 149 42 149 46 157 47 167 54 171 62 171 74 169 76 143 81 135 84 133 87 127 85 126 73 130 60 133 54 138 49 140 49 131 31Z M45 91 96 92 98 98 104 104 104 106 107 107 122 122 126 129 126 136 122 140 116 141 117 154 90 152 65 144 59 148 45 152 41 157 40 163 25 166 25 149 23 144 20 119 21 111 25 102 30 97Z"/>
  <path fill="#cfd8dc" stroke="#cfd8dc" stroke-width="1" stroke-linejoin="round" d="M127 28 129 42 132 51 132 57 129 61 125 75 125 82 128 87 133 88 135 85 143 82 169 77 172 73 171 63 187 65 188 72 195 75 195 77 186 84 164 89 158 93 162 112 162 124 159 134 155 141 149 147 137 152 137 171 142 172 145 175 145 179 126 179 122 176 117 142 123 140 126 137 127 129 123 122 108 107 105 106 105 104 101 101 97 94 97 91 102 90 112 80 112 78 114 77 115 73 119 68 122 58 125 55 125 38Z M5 125 15 125 11 137 4 136Z M39 163 41 163 41 171 46 172 49 176 49 179 30 179 25 175 25 167Z"/>
  <path fill="#b0bec5" stroke="#b0bec5" stroke-width="1" stroke-linejoin="round" d="M126 84 130 87 133 87 134 85 135 86 133 88 130 88Z M117 141 119 142 117 142 116 144Z M148 147 150 147 150 171 154 171 157 174 158 179 146 179 145 174 142 171 138 171 138 152 143 151Z M50 163 54 163 54 171 58 171 61 174 62 179 50 179 47 172 41 171 42 165Z"/>
  <path fill="#bf360c" stroke="#bf360c" stroke-width="1" stroke-linejoin="round" d="M129 25 134 36 134 39 140 48 134 53 132 53 131 44 129 40Z M157 58 160 58 162 60 162 65 159 67 154 67 154 60Z M187 65 196 66 196 75 188 71Z M64 145 69 145 71 147 76 148 77 150 56 156 54 158 54 163 41 165 41 158 44 155 44 153Z"/>
  <path fill="#e65100" stroke="#e65100" stroke-width="1" stroke-linejoin="round" d="M135 51 136 52 133 54Z M29 96 32 97 30 97 25 102 21 111 21 118 17 122 17 124 4 125 7 114 11 107 19 100Z M43 154 44 155 42 156Z"/>
  <path fill="#cfd7db" stroke="#cfd7db" stroke-width="1" stroke-linejoin="round" d="M124 48 125 55 122 58 124 55Z M118 66 119 68 115 73Z M113 76 114 77 112 78Z M194 77 195 78 191 81Z M111 79 112 80 110 81Z M107 84 108 85 105 87Z M156 138 157 139 155 140Z M153 142 154 143 149 147Z M147 147 148 148 146 149Z M140 171 142 171 145 175Z"/>
  <path fill="#f58018" stroke="#f58018" stroke-width="1" stroke-linejoin="round" d="M131 21 132 22 130 23Z M135 21 137 21 141 26Z M159 48 161 48 162 50Z M124 137 125 138 123 139Z"/>
</svg>
